<svg viewBox="0 0 525.75 710.25" xmlns="http://www.w3.org/2000/svg" data-name="Layer 1" id="Layer_1"><defs><style>.cls-1{fill:#fefefe;}.cls-2{fill:#b8b8b8;}.cls-3{fill:#bababa;}.cls-4{fill:#1d1d1d;}.cls-5{fill:#e1e1e1;}.cls-6{fill:#5c5c5c;}.cls-7{fill:#aa1115;}.cls-8{fill:#dfe3e7;}.cls-9{fill:#8ea4bc;}.cls-10{fill:#b4c1d1;}.cls-11{fill:#b5c1d1;}.cls-12{fill:#b3c0d0;}.cls-13{fill:#b2bfcf;}.cls-14{fill:#8da3b9;}.cls-15{fill:#8ea3ba;}.cls-16{fill:#d7dbdf;}.cls-17{fill:#aa1f23;}.cls-18{fill:#f1f2f3;}.cls-19{fill:#dadee2;}.cls-20{fill:#d7dade;}.cls-21{fill:#cbced1;}.cls-22{fill:#e8e9ea;}.cls-23{fill:#525253;}.cls-24{fill:#cfd2d6;}.cls-25{fill:#aeb1b3;}.cls-26{fill:#aaadaf;}.cls-27{fill:#edf1f5;}.cls-28{fill:#a0a1a4;}.cls-29{fill:#605f5f;}.cls-30{fill:#5b5b5c;}.cls-31{fill:#404040;}.cls-32{fill:#8b8c8e;}.cls-33{fill:#8494a5;}.cls-34{fill:#818182;}.cls-35{fill:#6b6b6c;}.cls-36{fill:#5e5c5c;}.cls-37{fill:#fec10b;}.cls-38{fill:#f1a60c;}.cls-39{fill:#8ea4bb;}.cls-40{fill:#020202;}.cls-41{fill:#010101;}.cls-42{fill:#030303;}.cls-43{fill:#e8ecf0;}.cls-44{fill:#eaeef2;}.cls-45{fill:#e6eaee;}.cls-46{fill:#ebeff3;}.cls-47{fill:#e7ebef;}.cls-48{fill:#e9edf2;}.cls-49{fill:#b3bfd0;}.cls-50{fill:#aebbcb;}.cls-51{fill:#bfccdd;}.cls-52{fill:#becbdd;}.cls-53{fill:#e8edf0;}.cls-54{fill:#b4c1d2;}</style></defs><path transform="translate(-332 -65.89)" d="M857.68,566.32q0,103.35.07,206.7c0,2.5-.4,3.11-3,3.11q-259.77-.14-519.55,0c-2.91,0-3.16-.86-3.16-3.35q.09-351.79,0-703.6c0-2.62.43-3.3,3.21-3.3q259.59.14,519.18,0c3,0,3.36.86,3.35,3.53q-.09,242.46-.06,484.92a.73.73,0,0,1-1-.11c-1.14-2.47-.86-5.31-2-7.77-2.24-7-3.88-14.17-7-20.89A118.79,118.79,0,0,0,827.51,496c-10.07-11-21.82-20.09-33.64-29.08-15.59-11.87-28.66-26.24-40.93-41.4-5.88-7.27-11.73-14.57-18.44-21.13-3.76-3.67-3.7-4.38.45-7.44a116.19,116.19,0,0,0,24-23.45c9.09-12,13.45-25.45,12.49-40.54-.17-2.62.15-5.26-.34-7.85s.69-3.76,2.95-4.34c13-3.37,23.37-11,32.54-20.42,6.95-7.15,12-15.6,16.27-24.54a11.94,11.94,0,0,0,.7-7,33.59,33.59,0,0,1-13.85,5.71c-6.19,1.14-11.66-.46-16.71-3.73-6.46-4.19-11.27-9.81-13.62-17.29a103.32,103.32,0,0,1-4.2-21.25,11.51,11.51,0,0,1,.62-4.8c2.29-6.63,3.41-13.54,4.85-20.38a21.79,21.79,0,0,0-.4-10c-.83-3.3-3.21-5.3-6.29-6.38a38.79,38.79,0,0,0-8.31-2.22c-2.95-.32-3.87-1.87-4.06-4.7-.49-7.21-1.06-14.42-2.07-21.58-1.94-13.82-8.94-24.33-20.57-32-5.54-3.64-11.21-7.54-17.3-9.54-6.43-2.13-9.68-6.84-14-11C696.33,98.64,684,89,669,83.33c-12.42-4.67-25.06-8.43-38.27-10-22.61-2.68-44.19.06-64.21,11.85-9.12,5.37-18.16,10.95-28.33,14.33a26.54,26.54,0,0,1-11.82.89c-3.11-.38-5-2.57-6.28-5.33-2.58-6.87.12-13,2.85-19a32.23,32.23,0,0,1,6.24-6.27c.61-.44,1.23-.86,2.22-1.68-3,.8-5.38,1.55-7.39,3.3-6,2.22-10.58,6.44-15.44,10.34-8.66,6.93-18,13-25.78,21a69.27,69.27,0,0,0-13.09,18.12c-5.62,11.71-6.38,23.45-.06,35.18,1.24,2.3,1.52,4.48-1.31,5.57-4.19,1.62-5.49,5.1-6.48,9-1.16,4.55-.78,9.18-.71,13.78a8.73,8.73,0,0,1-3.63,7.7,43,43,0,0,0-14.17,19.34,2.16,2.16,0,0,1-3.22.2c-5.54-6.44-12.12-11.79-18.38-17.48-10.91-10-24.1-15.26-38.49-15.26-15.86,0-30.38,5.13-39.63,19.41a68.4,68.4,0,0,0-8.27,19.15c-2.72,9.82-.08,19.32,1.39,28.77,3.17,20.41,13,37.73,26.21,53.43,13.55,16.15,27.31,32.13,40.66,48.46,5,6.07,10.17,12,15.3,17.93,3.44,4,3.64,8.44,1.58,12.86a6.69,6.69,0,0,0,.45,7c5.76,9.7,13.13,18.2,20.07,27,8.11,10.3,17.3,19.66,25.45,29.91a20.57,20.57,0,0,1,4.5,17.13C465.43,491,460.08,522.1,456,553.42a474.83,474.83,0,0,0-3.92,72.39c.11,5,1.48,9.46,4.81,13.06a9.6,9.6,0,0,1,2.75,8.81,11.46,11.46,0,0,0,.39,4.82c4.52,17.69,9.69,35.14,18.87,51.1,20.36,35.38,50.33,58.22,90,67.74a100,100,0,0,0,36.38,1.87c12.25-1.59,24.44-3.38,36.6-5.54a119.31,119.31,0,0,0,41.27-16c10.24-6.21,20.55-12.35,29.68-20.19,4.62-4,9.58-7.61,13.26-12.59,1.51-2,3.62-2.76,6.16-3,17.39-1.52,32-8.93,44.09-21.39C787.45,683,787.7,660,778.44,649.79c-2.6-2.86-2.81-5.77-1-9.23,4.72-8.76,6-17.9,2.21-27.41-.42-1-.85-2.22,0-3.19,1-1.16,2.35-.59,3.49-.19,9.71,3.36,19.71,3.78,29.89,3.61,11.14-.18,19.73-4.45,26.81-13.07,6.38-7.77,11.46-16,13.81-25.81a13.69,13.69,0,0,1,.9-2.46C856,570.33,854.91,567.28,857.68,566.32Z" class="cls-1"></path><path transform="translate(-332 -65.89)" d="M855.34,546.15c1.52,2.42,1.51,5.18,1.72,7.89.68,1.54-.3,3.29.62,4.79v7.49c-1.6,1.67-.6,4.34-2.28,6a3.9,3.9,0,0,1-.87-3.47,76.14,76.14,0,0,0,0-18.84A4.48,4.48,0,0,1,855.34,546.15Z" class="cls-2"></path><path transform="translate(-332 -65.89)" d="M857.68,558.83c-1.35-1.44-.55-3.17-.62-4.79.2.11.41.21.62.3Z" class="cls-3"></path><path transform="translate(-332 -65.89)" d="M855.34,546.15a87.49,87.49,0,0,1,.06,26.15c-3,15.16-11.88,26.7-23,36.76-3.3,3-7.55,3.76-11.7,4.46a77.9,77.9,0,0,1-38.4-3c-.66-.22-1.3-.83-2.11-.34-.63,1,.21,1.62.52,2.36,4.17,10.16,2.57,19.85-2.65,29.1-1.42,2.52-1.64,4.35.47,6.58,11,11.73,9.91,35.9-2.13,47.7-12.68,12.41-27.61,19.9-45.44,21.05-2,.12-2.79,1.25-3.91,2.38C705,741.65,679.55,758.67,649.08,767a226.31,226.31,0,0,1-55.08,7.9c-28.51.56-53.62-9.36-76.44-26.16-20.73-15.27-35.87-34.63-46.23-58.16-5.07-11.5-8.12-23.55-11.72-35.46-1-3.39-2.15-7-.6-10.62.52-1.2-.3-1.9-1-2.58-5.68-5.58-6.88-12.44-6.93-20.18-.08-14.74-.05-29.45,1.35-44.13,2.39-25.22,6-50.29,10.18-75.27,2.5-14.89,5.43-29.71,7.6-44.64A17.46,17.46,0,0,0,466,443.9c-15.44-18.91-32.6-36.44-45.8-57.15-1.85-2.9-2.69-5.27-.37-8.79a8.67,8.67,0,0,0-1-10.4q-29-34.53-58-69.05c-15.09-18-24.48-38.38-26.5-61.95-.24-2.84-.25-5.67-1.09-8.48-1.19-4,.42-7.94,1.36-11.72,7.78-31.06,33.83-43.07,61.1-36.81a60.69,60.69,0,0,1,30.79,17.53c4.63,4.84,10.61,8.35,14.11,14.3.82,1.14,1.6,1.25,2.33-.09,2-8.77,7.76-14.89,14.41-20.31,2.16-1.76,2.72-3.5,2.68-6.33-.09-5.79-.31-11.65,1.75-17.35,1.12-3.11,2.79-5.34,5.84-6.21,2.61-.75,2.74-2.11,1.63-4.05-8.54-14.89-5.55-29,3-42.63,6.74-10.73,16.24-18.81,26.32-26.23A141,141,0,0,0,511.45,78a37.6,37.6,0,0,1,12.32-7.48,26,26,0,0,1,4.05-1.79c1.22-.42,2.6-.41,1.8,1.66l-5.83,5.31c-1.91,3.38-1.91,3.38-5.32,5a7.67,7.67,0,0,1-.58.9c-5.31,5.27-11.16,9.94-16.66,15-7.24,6.67-14.69,13.2-20.31,21.39-5.37,7.81-8.62,16.29-7,26.05.88,5.26,3.72,9.47,6.94,13.49a3.87,3.87,0,0,0,3.24,1.6c10.73-.52,20.71,2.71,30.53,6.35a149.67,149.67,0,0,1,22.6,10.81c3.87,2.23,6.5,6.19,10.63,8.15a5.21,5.21,0,0,0,5.16,1.16c5.26-1.37,10.53-2.78,15.9-3.72,2.54-.44,2-1.23.3-2.22-3.27-2.3-7.24-3.91-8.36-8.37a2.07,2.07,0,0,1,1.81-1.26c6.09.92,10.92,4.64,16.15,7.43,12.64,6.74,25.13,13.75,37.68,20.64,3,1.63,5.87.49,8.7-.39,8.8-2.72,17.46-5.93,26.32-8.46,7.43-2.12,14.59-5.11,22.18-6.67,2.49.14,5.08-1.91,7.45.36.46,3.07-2.12,3.59-4,4.6-2.14,1.15-4.74,1.4-7,3.37,5.49,2.43,10.47,5,15.68,7a6.34,6.34,0,0,0,4.74-.32c2.68-1,5.4-1.93,8.14-2.81,6.62-1.69,12.92-4.42,19.61-5.91,8.85-2,17.65-4.11,26.81-4.06a32.81,32.81,0,0,1,5.92.58c1.5.3,3-.2,2.8-2-1.45-10.41-.9-21.15-5.17-31.09a10.06,10.06,0,0,0-1.5-2.57,60.76,60.76,0,0,0-33.74-24.46,10.16,10.16,0,0,1-5.08-3.56c-10-12.27-22-22.14-36.4-28.66a134.42,134.42,0,0,0-44.91-12c-11.81-1-23.38-.73-34.8,2.56-10.3,3-19.33,8.59-28.4,14-7.84,4.7-15.68,9.31-24.71,11.28-5.55,1.22-11.14,1.57-16.5-.86-2.79-1.27-5.17-3-5.91-6.3-1.14-6.12-1.5-12.2,1.14-18.08a1.17,1.17,0,0,1,1.07-.57c1.3.85.83,2.06.77,3.26-.14,3-.69,6,1.06,8.82,2.5,5.45,9.76,5.42,16.09,3.64,8.75-2.45,16.57-7,24.16-11.74,29-18.28,59.88-18.9,91.91-10.18,23.4,6.37,43.38,18.15,59.34,36.5,2.37,2.73,5.1,4.16,8.45,5.72,10.88,5.07,21.81,10.48,29.86,20,6.92,8.19,9.58,17.91,10.57,28.28.57,5.83,1.23,11.67,1.55,17.52.12,2.07.89,2.47,2.66,2.6a25.7,25.7,0,0,1,5.13,1c10.89,3.12,12,6.27,11.09,17.72-.52,6.68-2.43,13.22-4.28,19.72-3.37,11.83,3.67,37,15.13,43.58,10.25,5.89,20.84,5.9,30-1.83.57-.48,1.12-1.11,2-.7.66.33.56,1,.55,1.64,0,2.5,0,5-1.06,7.35-8.91,19.25-22.38,34.07-41.8,43.13a31.34,31.34,0,0,1-3.48,1.36c-6.58,2.15-6.74,2.16-6.12,8.83,2.1,22.54-6.82,40.58-22.52,55.92A122.84,122.84,0,0,1,734,398.81c-1.11.77-2.6,1.26-.76,3,9,8.34,16.38,18.14,24.11,27.61A261,261,0,0,0,804.56,474c15.84,11.78,29.62,25.59,39.65,42.85A103.74,103.74,0,0,1,855.34,546.15Z"></path><path transform="translate(-332 -65.89)" d="M517.72,80.13c.07-.8.78-1.8,1.19-1.55,3.56,2.2,2.91-2.56,4.88-2.85-.9,3.47-2.8,6.59-3.38,10.22a25.64,25.64,0,0,0,.39,9.21c-1.9-1.37-1.44-3.42-1.63-5.33-.21-2.24.9-4.63-.75-6.7a1.53,1.53,0,0,1-.17-.94C518.51,81.39,518.64,80.62,517.72,80.13Z" class="cls-4"></path><path transform="translate(-332 -65.89)" d="M529.62,70.42c.37-1.3.07-1.87-1.37-1.34s-2.83,1.46-4.48,1.47c2.56-2.53,6-2.78,9.22-3.62A6.1,6.1,0,0,1,529.62,70.42Z" class="cls-5"></path><path transform="translate(-332 -65.89)" d="M442.89,211.29c.35,1-.08,1.82-1,1.87s-1.38-.8-1.3-1.78A1.46,1.46,0,0,0,442.89,211.29Z" class="cls-6"></path><path transform="translate(-332 -65.89)" d="M689.58,389c-1.75,6.17-5.41,10.29-9.45,14.11a26,26,0,0,1-8.7,5c-.69.26-1.58.33-1.62,1.27,0,1.26,1,1.14,1.86,1.34,17.54,4.43,34.57,3.65,50.7-5.27,2.59-1.44,4.18-1.46,6.18,1.08,8.87,11.27,18,22.36,27,33.51a17.07,17.07,0,0,0,2.44,2.83c7.65,6,7.65,14.31,6.52,22.76-2.66,20-13.16,36.33-25.23,51.81a13.16,13.16,0,0,1-2.23,2c-2.08,1.67-3,1.22-3.76-1.45-2.9-10.45-5.94-20.88-11.28-30.43-1-1.83-1.76-4.8-4.62-3.71s-1.52,3.89-.86,5.86c11.75,35.2,18,71.7,25.57,107.88,1.45,6.94,2.54,14,3.81,20.94a3,3,0,0,1-.46,2.84c-4.54,4.82-7.63,10.7-11.92,15.77-9.65,11.41-22.68,17.26-35.7,23.29C675.09,670.91,651,676.73,626.36,680c-30.57,4.07-60.65,1-90-8.49-17.55-5.65-35.2-11.06-51.86-19.15a77.2,77.2,0,0,1-23.19-16.82c-1.11-1.2-2.1-2.28-2.08-4.16.13-12.85-.17-25.72.28-38.56.54-15.8,2.6-31.5,4.72-47.17,2.45-18.12,5.17-36.21,7.88-54.3,2-13.41,4.18-26.79,6.27-40.19a50.26,50.26,0,0,0,1-7.38c0-2.25-.34-4.85-3.86-3.49-.95.37-1.9.4-2.2-.61-1.29-4.39-5.13-6.47-8.08-9.42-3.25-3.25-6.09-6.91-9-10.46-10.51-12.66-21.43-25-30.7-38.65-1.41-2.07-1.49-3.48,0-5.26,6.55-8,12.81-16.24,19.69-23.93,7.65-8.55,15.85-16.6,23.82-24.86,1.45-1.52,2.69-2.92,4.78-.41a4.8,4.8,0,0,0,5.19.95c3.6-1.62,7.45-.43,11-1.49,1.3-.39,2,.39,2.41,1.68,1.56,5.12,3.27,10.18,4.37,15.43.41,2-.42,3-2,3.92A135.58,135.58,0,0,0,481,356.88a13.57,13.57,0,0,0-2.24,2c-.82,1-1.45,2.12-.67,3.41.89,1.45,2.38,1.44,3.66.89a33.39,33.39,0,0,0,4.85-2.78c3.45-2.24,6.86-4.55,10.28-6.84,1.81-1.2,3.08-1.07,4.12,1.12,7.2,15.14,19,26,32.51,35.41,1.79,1.25,3.17,2.32,3.18,4.94,0,1.83,1.21,3.78,2.26,5.45,10.62,16.93,25.5,28.3,45,32.73,12.41,2.81,24.42-.42,36.22-4.31,12-4,21.61-11.73,30.93-19.88a9.51,9.51,0,0,1,3-2.15,132.46,132.46,0,0,0,33.19-17A13.47,13.47,0,0,1,689.58,389Z" class="cls-7"></path><path transform="translate(-332 -65.89)" d="M656.32,195.6c3-1.63,5.83-1.16,8.81.32,4.9,2.44,10,4.43,14.89,7,4.2,2.21,8.15,2.12,12.48.51,2.15-.8,4.67-.51,7-.92,9.82-1.77,19.16-5.45,29-7.37a93.47,93.47,0,0,1,42.25.92c5,1.29,6,2.48,5,7.77-5.2,27.11-14.46,52.2-36.26,70.8A45.13,45.13,0,0,1,726,282.67c-5.26,1.95-6.6,5.63-6.38,10.47.32,7.12-.24,14.22-.28,21.33,0,2.45-.73,3.49-3.33,3.64-5.1.31-10.18,1-15.27,1.52-.62.06-1.25.1-1.86.21-2.37.44-4.67,1.36-4.35,4.15.29,2.51,2.58,3.19,4.87,3.08,2.49-.12,5-.42,7.46-.66,3.1-.29,6.22-.48,9.3-.92,2.06-.3,2.92.29,2.39,2.35-.88,3.38-1.82,6.74-2.74,10.1-.47,1.68-1.54,1.47-2.93,1.16q-7.47-1.68-15-3.09c-2.84-.54-6.68-1.1-7.43,2.16s3,4.29,5.81,4.92c4.49,1,9,1.93,13.56,2.74,2.37.43,2.92,1.38,1.73,3.54-1.62,2.94-3.17,5.94-4.58,9-1,2.14-1.86,2.45-3.79.79-4.06-3.5-8.31-6.78-12.57-10-2-1.56-4.45-3.12-6.5-.28-1.91,2.64.33,4.45,2.11,6,3.89,3.32,7.86,6.55,11.94,9.63,1.86,1.41,1.83,2.4.47,4.2-9.09,12-21.36,19.64-34.94,25.53-19.77,8.58-40.49,12.45-61.92,12.51-9.72,0-18.89-3.26-28-6.17a145.47,145.47,0,0,1-47.35-25.87,76.71,76.71,0,0,1-18.89-22.51c-1.5-2.69-1.09-4.1,1.71-5.45,5.05-2.44,10-5.16,14.87-7.9,2-1.1,4.18-2.52,2.82-5.26s-3.87-2.18-6.13-1c-4.79,2.42-9.63,4.74-14.26,7.43-2.54,1.48-3.38.92-4-1.72-.74-3.28-1.76-6.49-2.7-9.73-.57-1.94.06-2.74,2.13-2.72,4.73.06,9.48,0,14.21-.07,2.77-.07,6.47-.34,6.55-3.51.1-3.59-3.77-3.71-6.59-3.77-5.1-.12-10.22-.06-15.33.17-2.13.09-2.93-.59-3-2.64-.15-3.11-.48-6.22-.65-9.33-.12-2.08.54-2.93,2.89-2.1,4.23,1.49,8.58,2.65,12.88,3.93a30.49,30.49,0,0,0,3.61,1c2.11.35,4.21.06,5-2.23s-.93-3.89-2.85-4.56c-4.82-1.69-9.73-3.15-14.63-4.6-5.59-1.66-5.59-1.62-4.63-7.52,1-6.16,1.87-12.34,3.41-18.39a8.72,8.72,0,0,0-2-8.57c-4.62-5.38-9.83-10.22-14.19-15.85-7.8-10.08-12.53-21.43-15.64-33.68-3.29-12.89-5.39-25.87-4.59-39.18.42-6.95,1.09-7.4,8.15-7.7A94.37,94.37,0,0,1,516,175c9.22,3.91,17.83,8.87,26.42,13.92.54.32,1.26.54,1.56,1,3,4.72,7,3.19,11.09,2.14,7.25-1.85,14.57-3.41,21.81-5.27a6.28,6.28,0,0,1,5.23.9c8.26,4.9,16.7,9.49,24.87,14.53,7.69,4.73,15.5,5.64,23.85,2.19,1.95-.8,4-1.35,6-2,2.23-.85,4.56-1.37,6.78-2.25l8.87-3.13C653.76,196.49,655.08,196.16,656.32,195.6Z" class="cls-1"></path><path transform="translate(-332 -65.89)" d="M518.47,82.42a.65.65,0,0,0-.05.71v0c-2.17,6.22-3.37,12.48-.71,18.88,2,4.77,6.19,6.17,10.84,6.62,8.38.79,16.09-1.63,23.36-5.43,6.51-3.41,13-7,19.15-10.92C593.38,78,617.5,77,642.45,82.27c20,4.25,38.54,11.9,54.1,25.73A115,115,0,0,1,709,120.92a10.6,10.6,0,0,0,6.25,3.55c5.34,1.28,10.14,4.24,14.67,7.22,6.12,4,12.1,8.41,16.39,14.59a27.86,27.86,0,0,1,1.42,2.58c4.5,8.73,5.25,18.27,5.85,27.82a37,37,0,0,0,.89,6.64c.48,1.93-.29,3-2.29,2.68-12.87-2-25.09,1.38-37.37,4.36-5.66,1.38-11,3.51-16.55,5.34-3,1.15-6,2.26-9,3.45a5,5,0,0,1-4.27-.43c-5.49-2.55-10.87-5.34-17.06-7.4,4-3.87,9.88-3.54,13.19-7.61-.2-.42,1.59-1.17-.19-1.3a17.2,17.2,0,0,0-7.44,1.15c-16.62,5.22-33.27,10.37-49.86,15.7a10.18,10.18,0,0,1-8.81-.89C600,190.12,585.14,182.06,570.25,174c-2.39-1.29-4.69-2.88-7.5-3.21-.68,0-2.1-1.42-1.6.84,1.85,3.48,5.42,5,8.32,7.3,1.51,1.37,2.62,2.6-.54,3.3-5.41,1.2-10.82,2.35-16.13,3.94a6.47,6.47,0,0,1-5.3-1,20,20,0,0,1-7.66-5.74,12.79,12.79,0,0,0-4.21-3c-15-8.1-30.55-15.67-47.76-16.2-10.36-.32-12-7.32-14.2-13.66-3.63-10.49.38-20.1,6.28-28.91,5.4-8.08,12.76-14.33,19.76-20.89,5.82-5.46,12-10.58,18-15.85C519,80.85,519.07,81.46,518.47,82.42Z" class="cls-8"></path><path transform="translate(-332 -65.89)" d="M488.61,302.71c-9,5-16.73,11.81-24,19-13,12.78-26.21,25.35-36.67,40.41-1.73,2.5-2.43.82-3.46-.41L394.12,325.6c-10.68-12.7-21.69-25.14-32-38.16-13.6-17.23-22-37-21.41-59,.69-25.51,12.4-38.33,35.07-42.09,14.66-2.42,27.73,2.15,39.23,11a95.16,95.16,0,0,1,21.68,24.06c12.92,19.86,26.75,39.14,39,59.46,1.08,1.79,2.07,3.64,3.1,5.47a18.59,18.59,0,0,0,2.41,2.83l0,0c-.36,2.17-1.69.95-2.78.85-2.35-.21-4.55-2.14-7-.58-2.41,2.86-2.16,4.45,1.21,5.77,4.25,1.67,8.6,3.09,12.9,4.62,1,.39,2.09.74,3.12,1.13C490.18,301.44,489.16,302.09,488.61,302.71Z" class="cls-8"></path><path transform="translate(-332 -65.89)" d="M773,459.29c11.35,11.11,24.67,19.84,36.52,30.35,14.29,12.67,26.2,27.1,33,45.21,5.63,15.08,7.17,30.29.61,45.6-4.27,9.95-11.59,17.34-19.72,24.09a8.4,8.4,0,0,1-4.54,1.58c-26.33,3.28-48.66-3.71-66.41-24.42-5.59-6.53-7.37-13.86-9-21.63-2-9.51-4.09-19-6.33-28.49-.54-2.29,0-3.49,2-4.49a27.5,27.5,0,0,0,10.1-9.27c9.59-13.78,18.55-27.86,21.72-44.77a58.49,58.49,0,0,0,.74-10.81C771.58,461.05,769.81,459,773,459.29Z" class="cls-8"></path><path transform="translate(-332 -65.89)" d="M574.59,763.41a85.89,85.89,0,0,1-30.68-9.79,51.25,51.25,0,0,0,11.22-9.17c3.73-4,4.34-6.48,2.37-10.34A10.63,10.63,0,0,0,547,728.43a21.74,21.74,0,0,0-12.68,5.82c-4.47,4-5.38,4-10-.08-2.27-2-4.44-4-6.77-5.89-4.29-3.41-9-5.91-14.78-4.57-14.2-15.37-24.55-32.91-30-53.23,3.64-2.86,7.71-5.39,8.37-10.6l18.7,8.26c1.1.78,2.51.86,3.65,1.56a.36.36,0,0,1,.15.53c.44,1.64-1,1.71-1.89,2.21a9.51,9.51,0,0,0-3.78,12.85,59.62,59.62,0,0,0,13.79,17.48c4.46,3.81,8.75,7.69,14,10.39a6.45,6.45,0,0,0,6.67.1c8.53-4.65,15.5-11.22,22.35-17.94a8.41,8.41,0,0,0,.72-.86c2.06-2.56,3.95-5.13,1.25-8.39,10.31,1.66,20.57,3.58,31.06,4.09,19,.91,37.85.05,56.5-3.93a16.08,16.08,0,0,1,2.21-.16c-3.15,3.29-1.11,6.13.81,8.94a58.63,58.63,0,0,0,26.93,21.7c2.06.84,3.67.09,5.21-1a95.91,95.91,0,0,0,20.81-21.28c3.56-4.82,3.55-9.56.63-12.71-3.11-3.36-8-3.89-13-1.22a26,26,0,0,0-8.29,6.86c-3.13,3.93-4.25,3.94-8.19.67-2.86-2.38-5.69-4.94-9.93-4.11a1.58,1.58,0,0,1-1.57-.82c2.2-1.22,4.71-1.41,7.09-2,15-3.77,29.13-9.76,43.08-16.28,1-.46,2.05-.82,3.08-1.22,5.14,7.9,10.81,15.28,19.33,19.92,1.4.77,2.21.68,2.85-.9.51-1.26.52-3.05,2.53-3.13-1.24,8.1-5.08,15-9.68,21.63-2.37-2.61-5-2.29-7.73-.68-3.24,1.93-5,4.75-4.62,8.66a18.74,18.74,0,0,0,1.92,5.61,86,86,0,0,1-17.23,15c-4.09-2.28-9.55-1.37-14.09,2.38-2,1.67-3.76,3.63-5.63,5.45-2.26,2.2-4.35,2.2-6.92.26-4.13-3.12-7.76-7-13-8.54a21.33,21.33,0,0,0-6.24-.92c-3.33.05-6.35,1.06-7.8,4.15a9.72,9.72,0,0,0,.54,9.63c.2.32.46.59.66.91,3.1,4.81,6.27,9.52,12.8,9.87-5.82,3-12.17,4.35-18.47,5.66-10,2.08-19.92,4.6-30.2,4.86.19-2.41,2.44-1.46,3.63-2.24a16.46,16.46,0,0,1,3.42-.34c3.81-.43,7.6-1,11.46-1.7-3.46-5.28-14.68-4.13-21.19,2.72.58,1.08,2.18.44,2.72,1.56-12.54,1.9-25.09,2.7-37.63,0,2-1.78,4.34-1.13,6.59-.89,1.33.15,2.65.33,4,.42,3.67.19,7.35,0,11,.09a17.17,17.17,0,0,0,3.1-.06c-5-5.11-10.42-9.2-17.86-9.85-6-.53-9.43,1.85-10.48,7.83C571.93,762.06,574.58,760.75,574.59,763.41Z" class="cls-9"></path><path transform="translate(-332 -65.89)" d="M758.2,362.85c-.2,1.58-1.29,2.69-2.17,3.87-14.41,19.33-32.18,33.95-56.19,39.67-5.31,1.27-10.77,1.46-17,1.59,2.89-3.34,5.68-5.93,7.68-9.17,2.76-4.49,5.47-9,5.38-14.5,0-1.43.95-2.21,1.76-3.15a91.28,91.28,0,0,0,6.4-7.79c1.43-2.13,2.36-1.91,3.94-.3,3.75,3.83,7.6,7.55,11.44,11.29a23.28,23.28,0,0,0,2.83,2.43c1.44,1,3,1.41,4.39-.08a2.94,2.94,0,0,0,0-4.1c-1.85-2.34-3.75-4.66-5.8-6.83q-4.64-4.87-9.54-9.49c-1.25-1.19-1.41-2-.27-3.4a54.48,54.48,0,0,0,8.09-12.53c.77-1.77,1.9-1.55,3.34-1.09a64.23,64.23,0,0,0,12.69,3.09c2.12.22,4.33.2,4.87-2.24s-1.68-3.33-3.59-4c-4-1.33-8.05-2.65-12.12-3.83-1.86-.53-2.2-1.35-1.76-3.23.87-3.76,1.49-7.58,2-11.4.3-2.35,1.24-3.44,3.7-3.73,5.19-.6,10.34-1.57,15.53-2.26a8.22,8.22,0,0,0,4.37-1.88c.59-2.94-.92-4.63-4.44-4.79-3.85-.18-7.67.55-11.48.92-6.14.59-6.11.85-5.94-5.2a3.22,3.22,0,0,1,.27-1.44l0,.06a32.69,32.69,0,0,0,0-12.66c-1-5.52-.63-6.33,4.24-8.65,17.68-8.45,29.46-22.52,37.9-39.79.51-1,.53-2.49,2.35-3.11,1.32,11,4.86,20.9,13.61,28.19s18.29,11,30.43,6.21A71.76,71.76,0,0,1,801.57,297c-8.2,7.57-17,14.33-28,17.36-2.56.7-4.14.49-5.14-2.37-.85-2.43-2.4-4.62-3.65-6.91a3.72,3.72,0,0,0-2-2.13c-.91-.41-1.76-1-2.76-.21s-1,1.76-.67,3c1.52,5.63,3.76,11,4.87,16.81a58.77,58.77,0,0,1-5.1,38.3A10,10,0,0,0,758.2,362.85Z" class="cls-8"></path><path transform="translate(-332 -65.89)" d="M776.09,627.74a28.48,28.48,0,0,1-5.2,12.62c-2.75,4-2.39,7.4.53,10.83,5.6,6.56,7.64,14.16,6.67,22.6-.66,5.76-2.07,11.25-6.48,15.46a1.58,1.58,0,0,1-.38-1.33c0-.24-.23.11-.29.19-5.79,7.78-14.34,11.59-22.63,15.77-.67.34-2.36.19-1.27,1.83a7.7,7.7,0,0,1-3.85,1.48c-.85.22-1.75,0-2.6.26-1.3-.25-2.76-.2-3.33-1.79,5.68-10.2,11.21-20.48,13.55-32.07,1.57-7.77.31-15.64.2-23.45a86.19,86.19,0,0,0-1.61-17.09c-.45-2.07.34-3.6,1.55-5.13a15.22,15.22,0,0,0,3.4-12.24c-1-7.25-1.58-14.56-3.77-21.6-.09-1.28-1.31-2.76.63-3.69a88.73,88.73,0,0,0,17.47,14.29c4.49,2.76,10.24,17.23,7.5,22.55-1.7-1.77-1.16-4.14-1.66-6a32.05,32.05,0,0,1,.21,5.28C774.58,627.77,775.47,627.54,776.09,627.74Z" class="cls-8"></path><path transform="translate(-332 -65.89)" d="M556.73,686.07c2.85,1.87,3.31,4,1.08,6.81a90.13,90.13,0,0,1-26.14,21.88A4.83,4.83,0,0,1,527,715c-3-1.55-6.14-2.92-8.64-5.06-8.33-7.09-16.54-14.35-21.53-24.44-2.47-5-.36-11.64,4.61-14,.76-.36,1.77-.29,2.17-1.27l1.42.26a14.91,14.91,0,0,1,4,1.36,42.81,42.81,0,0,1,18.13,11.22c1.37,1.39,3,2.37,4.42.54,2.3-2.91,4.83-2.79,7.93-1.64a18.44,18.44,0,0,0,4.63,1.12Z" class="cls-10"></path><path transform="translate(-332 -65.89)" d="M659.87,683.07c5.44-1.22,9.4,1.38,13,5,2.22,2.3,4,1.74,5.69-.74a23.07,23.07,0,0,1,12.33-9.13c5.88-1.94,12.33,1.68,13.1,7.77.54,4.17-1.55,7.81-4.17,10.83-5.53,6.33-10.85,12.84-17.66,18-3.61,2.74-6.15,3.71-10.82,1.56a60.69,60.69,0,0,1-25.68-22.32,12.92,12.92,0,0,1-1.18-1.89c-1.15-2.64-1.5-5.06,2.07-6.12Z" class="cls-11"></path><path transform="translate(-332 -65.89)" d="M492,290.38c-1.74-.65-2.17-2.05-2.87-3.16-12.13-19.16-23.77-38.64-37.34-56.86-1.45-2-2.05-4.49-4.2-6-.93-.66-.52-1.84-.34-2.81,1.53-8.46,3.92-16.52,10.55-22.57.76-.7,1.27-2.22,2.59-1.67,1,.43.58,1.78.7,2.71a125.8,125.8,0,0,0,9.24,34.56,74.67,74.67,0,0,0,15.15,22.51c2.71,2.75,5,5.88,7.7,8.65,2.46,2.55,2.68,5.61,2.17,8.68C494.42,279.68,493.14,284.88,492,290.38Z" class="cls-8"></path><path transform="translate(-332 -65.89)" d="M575.19,425.59a69.88,69.88,0,0,1-31.56-24.84c-1.09-1.51-2.11-3.07-3.17-4.63,1.29-1,2,.1,2.7.54,16.13,9.78,33.87,15.29,52.17,18.81,8.69,1.66,17.66-.23,26.48-.91,3-.24,5.94-.73,8.9-1.11,1.73-.53,3.6-.19,5.33-1,.71-.31,1.79-.19,1.62,1.18a55.41,55.41,0,0,1-23.77,11.94c-7.09,1.38-14,3.4-21.41,3.36C586.42,428.94,580.84,427.29,575.19,425.59Z" class="cls-8"></path><path transform="translate(-332 -65.89)" d="M502.72,723.71c.34-2,1.93-1.69,3.21-1.52a23.57,23.57,0,0,1,13.53,6.47c2.24,2.15,4.67,4.08,6.9,6.24s4.08,2,6.1-.15A23.13,23.13,0,0,1,546,727.52a11.5,11.5,0,0,1,11.3,4.22c3.76,4.59,3.18,8.58-1,13a110.27,110.27,0,0,1-8.51,7.81c-1.21,1-2.47,1-3.81,1.11a154.14,154.14,0,0,1-37.33-25.92C505.23,726.44,504,725,502.72,723.71Z" class="cls-10"></path><path transform="translate(-332 -65.89)" d="M660.81,752.87c-3.87,1.47-6.48-.32-8.87-3.19-3.38-4.08-7.38-7.69-7-13.77.31-4.55,3.17-8.13,7.72-8.49a20.38,20.38,0,0,1,15.57,4.77c2.25,1.93,4.68,3.65,7,5.54,2,1.61,3.36.68,4.81-.79,3.73-3.79,7.14-8,12.79-9.19a27.18,27.18,0,0,1,6.29-.34c1.55,0,1.86,1,1.36,2.27C688.06,738.78,675.18,747.1,660.81,752.87Z" class="cls-10"></path><path transform="translate(-332 -65.89)" d="M737.83,679.45a8.16,8.16,0,0,0-1.05,1.46c-2.22,5.39-1.94,4.9-7.09,2-7.07-4-10.75-11-16.28-16.35-1.06-1-.68-2-.29-3l17.17-10.42c1.09-.54,2.15-1.32,3.4-.36,2.52,2,5,4,7.54,5.9,1.2.87,1,2.38.66,3.41-.61,1.77-.4,3.62-1,5.35A64,64,0,0,1,737.83,679.45Z" class="cls-10"></path><path transform="translate(-332 -65.89)" d="M717.72,714.67c-3.34-1.64-3-4.93-2.91-7.66.19-4.88,5.22-8.9,10.14-8.88,2.11,0,3.34.65,3.2,3A55.41,55.41,0,0,1,717.72,714.67Z" class="cls-12"></path><path transform="translate(-332 -65.89)" d="M481.1,659.88c.54,1.12,1.45,1.91.14,3.47-1.91,2.26-3.93,4.38-5.93,6.54a2,2,0,0,1-2.58.59c-2-5.51-2.6-11.29-3.58-17.86Z" class="cls-13"></path><path transform="translate(-332 -65.89)" d="M740.91,667.44l-.06-2.57c0-1.69,1.72-3.69.41-4.93a90.4,90.4,0,0,0-9.2-7c-.36-.26-1.17.13-1.77.22,2-1.86,4-3.64,5.92-5.59a79.71,79.71,0,0,1,5.67-5.86C742.36,650.42,743.87,659,740.91,667.44Z" class="cls-14"></path><path transform="translate(-332 -65.89)" d="M544.08,683.09c-1.53.42-2.94-.19-4.34-.63-3-1-5.6-1.39-7.61,2.13-1.19,2.09-3.5,1.7-5.06,0A49,49,0,0,0,508.71,672a.72.72,0,0,1,1.06-.19Z" class="cls-15"></path><path transform="translate(-332 -65.89)" d="M698.25,195.7c2.55-2.42,6.06-2.81,9.13-3.7,13.59-3.94,27.24-7.78,41.66-7,5.35.3,5.35.15,4.18-5.26-.85-3.9-.59-7.91-.91-11.85a66,66,0,0,0-4.1-16.91,17,17,0,0,1-.49-2.14c4.09,5.83,4.92,12.64,5.74,19.43.6,4.94.91,9.92,1.44,14.88.27,2.45-.58,3.52-3.11,3.24-17.21-1.89-33.25,3-49.17,8.55A10.54,10.54,0,0,1,698.25,195.7Z" class="cls-16"></path><path transform="translate(-332 -65.89)" d="M477.38,320.25c3.65-4.05,7.94-6.62,11.56-10,1-.9,1.8-.87,1.93.72a6.26,6.26,0,0,1,0,.75c-.4,7.52,2.05,7.7-7.22,8.23C481.74,320.1,479.87,321.09,477.38,320.25Z" class="cls-17"></path><path transform="translate(-332 -65.89)" d="M747,705.71c-.91-.2-2,.1-2.8-1.15,10.69-4.48,20.78-9.67,28.31-19.31.49,2-1.35,2.67-.94,4-6,7.66-14,12.44-23,15.71C748.1,705.16,747.58,705.46,747,705.71Z" class="cls-18"></path><path transform="translate(-332 -65.89)" d="M758.2,362.85c.23-2.8,1.89-5.08,2.88-7.59,5.39-13.82,4.92-27.62.31-41.49-1-2.93-1.89-5.88-2.87-8.8a2,2,0,0,1,1.66-2.8c2.23-.42,4.25.08,4.59,2.91-.56-.47-1.12-.95-1.7-1.4-.83-.64-1.74-1.09-2.74-.47-1.16.73-.57,1.72-.28,2.66,1.24,4,2.61,8,3.68,12.12,3.7,14.19,3,28.06-3.41,41.43C759.74,360.63,759.34,362,758.2,362.85Z" class="cls-19"></path><path transform="translate(-332 -65.89)" d="M575.19,425.59c2.34-.37,4.38.85,6.46,1.49,9.57,2.94,18.89,1,28.22-1a9.84,9.84,0,0,1,4-.47C601,429.89,588.09,431.67,575.19,425.59Z" class="cls-20"></path><path transform="translate(-332 -65.89)" d="M547.5,185.15a14.24,14.24,0,0,0,8-.1c4.27-1.21,8.58-2.27,12.92-3.22,2.18-.48,2.09-1.44,1.05-2.91a7.16,7.16,0,0,1,3.45,2.86c-7.31,1.75-14.45,3.48-21.6,5.14C549.68,187.3,548.52,186.29,547.5,185.15Z" class="cls-16"></path><path transform="translate(-332 -65.89)" d="M726.56,309.31c.62,2.13-.84,4.91.85,6.4s4-.44,6.1-.42c3.58,0,7.12-1,10.73-.63,3.79.35,5.3,2.34,3.91,5.16.33-3.27-1.7-4.22-4.37-4.11-4.47.2-8.95.44-13.38,1-3.23.43-5.16.12-4.31-3.81C726.35,311.76,725.85,310.45,726.56,309.31Z" class="cls-21"></path><path transform="translate(-332 -65.89)" d="M776.09,627.74c-.91.41-.91,1.8-2.19,2V617.94l1-.13q.64,4.71,1.31,9.42A.3.3,0,0,1,776.09,627.74Z" class="cls-22"></path><path transform="translate(-332 -65.89)" d="M517.72,102c-3.64-6.44-2.1-12.68.71-18.88-.25,3.78-1.76,7.35-1.53,11.24C517.05,96.93,517.5,99.44,517.72,102Z" class="cls-4"></path><path transform="translate(-332 -65.89)" d="M673.48,183.56c2.68-2.16,6.32-1.06,9.17-2.69a.87.87,0,0,1,1.24.44.92.92,0,0,1-.48,1.25c-.72.45-1.53.77-2.3,1.15C678.62,181.17,676,184.34,673.48,183.56Z" class="cls-23"></path><path transform="translate(-332 -65.89)" d="M471.39,289.34c1.42-1.68,3.08-.59,4.71-.51s3.34,2,5.1.24a2.54,2.54,0,0,1,1.62,2.47C479,290.86,475.34,289.09,471.39,289.34Z" class="cls-24"></path><path transform="translate(-332 -65.89)" d="M740.83,707.07c.8-.26,1.6-.53,2.36.12-1.86,1.4-4.17,1.42-6.28,2-.53.15-1.33.41-1.57-.4s.27-1.39,1-1.79C737.81,707.55,739.32,706.89,740.83,707.07Z" class="cls-25"></path><path transform="translate(-332 -65.89)" d="M726.54,296.71a19.22,19.22,0,0,1,0,12.66Z" class="cls-21"></path><path transform="translate(-332 -65.89)" d="M637.66,413.67c-2.26-1.81-4.66.86-6.95-.22,1.84-1.15,4-.89,6-1.51,1-.2,2.21-.91,2.44.94Z" class="cls-26"></path><path transform="translate(-332 -65.89)" d="M740.83,707.07c-1.51.07-3,2.33-4.52,0,.31-.46.63-.91,1-1.37Z" class="cls-27"></path><path transform="translate(-332 -65.89)" d="M751.21,590.39c-1.17,1.06,0,2.53-.63,3.69-.38-1.14-.8-2.26-1.11-3.41-.18-.64-.57-1.6.48-1.74C750.69,588.84,751.17,589.56,751.21,590.39Z" class="cls-28"></path><path transform="translate(-332 -65.89)" d="M643.64,200.14a13.46,13.46,0,0,1-6.78,2.25A11.63,11.63,0,0,1,643.64,200.14Z" class="cls-29"></path><path transform="translate(-332 -65.89)" d="M488.61,302.71c.91-3-2.82-1.21-3.11-3,1.3-.39,2.38.45,3.56.68.7.14,1.58.41,1.31,1.4A1.36,1.36,0,0,1,488.61,302.71Z" class="cls-30"></path><path transform="translate(-332 -65.89)" d="M561.15,171.62c-1-.6-2.88-1.2-1.65-2.44,1-1,2.2.87,3.25,1.6Z" class="cls-31"></path><path transform="translate(-332 -65.89)" d="M773,459.29c-2.14.19-.58,2.13-1.4,2.95-.76-.81-.48-1.86-.63-2.81-.09-.58-.17-1.36.65-1.45A1.2,1.2,0,0,1,773,459.29Z" class="cls-32"></path><path transform="translate(-332 -65.89)" d="M509.77,671.82l-1.06.19c-1.23-.52-2.68-.48-3.69-1.52C506.87,670,508.32,670.9,509.77,671.82Z" class="cls-33"></path><path transform="translate(-332 -65.89)" d="M518.47,82.42c-.1-.6,0-1.32-.8-1.56a1,1,0,0,1,.05-.73c.66-.1,1.41-1.23,1.86-.43C520.16,80.73,519.4,81.73,518.47,82.42Z" class="cls-34"></path><path transform="translate(-332 -65.89)" d="M639.17,412.88c-.5-1.14-1.6-.71-2.44-.94a18.53,18.53,0,0,1,2-.79c.54-.15,1.35-.57,1.61.19S639.88,412.59,639.17,412.88Z" class="cls-35"></path><path transform="translate(-332 -65.89)" d="M503.45,669.7a4,4,0,0,1-3.65-1.56A4.61,4.61,0,0,1,503.45,669.7Z" class="cls-33"></path><path transform="translate(-332 -65.89)" d="M656.32,195.6a4.71,4.71,0,0,1-3.81,1.41A4,4,0,0,1,656.32,195.6Z" class="cls-36"></path><path transform="translate(-332 -65.89)" d="M481.22,289.09a3.1,3.1,0,0,1-2.41-2.83C480.13,286.76,480.67,287.93,481.22,289.09Z" class="cls-24"></path><path transform="translate(-332 -65.89)" d="M646.68,618.93c-3.71-1.31-7.43-2.63-11.15-3.93-7-2.45-7.68-3.82-5.5-10.72.6-1.9,1.26-3.78,1.92-5.66,2.19-6.25,6.08-8,12.38-5.59,7.8,3,15.57,6,23.42,8.79,3.56,1.28,5.41,3.49,5,7.28a64.66,64.66,0,0,1-10.54,29.22c-2,2.92-5.09,3.9-8.37,4.36a105.5,105.5,0,0,1-28.72.51c-13.63-1.86-23.72-9.73-29.2-22-9-20.12-5.52-40.79,11.59-56.16,17.63-15.83,45.11-13.24,57.25,1,2.18,2.56,4.58,4.94,6.78,7.48,1.73,2,1.89,3.91-.45,5.74-3.25,2.52-6.4,5.17-9.56,7.81s-6,2.68-9.42.2c-3.68-2.69-7.16-5.72-11.89-6.83-9.45-2.22-18,1.69-22.77,10.76-3.67,7-1.37,18.23,5,23.63C629.51,620.91,637.62,622.19,646.68,618.93Z" class="cls-1"></path><path transform="translate(-332 -65.89)" d="M633.85,531.24c-1.45,2-3,1.81-5.13.76-6.92-3.44-12.51-8.62-18.17-13.69-8-7.13-16.79-13.5-22.12-23.12-4.15-7.48-8-15.11-5.15-24.09s9-14.9,18.55-16.38a22.64,22.64,0,0,1,23.75,11.35c.6,1,1.17,2.1,1.9,3.42,3.86-9.75,10.62-15.54,20.84-16.18,17.58-1.1,29.41,16.38,22.39,32.91A97.89,97.89,0,0,1,648.27,519c-3.78,3.61-7,7.83-11.41,10.76A4.64,4.64,0,0,0,633.85,531.24Z" class="cls-37"></path><path transform="translate(-332 -65.89)" d="M553.65,555c8.83-1.61,16.87,3.79,25.36,7.52a4,4,0,0,1,2.25,5.64c-2,4.19-2.82,8.77-4.75,13s-4,5-8.18,2.5a44.91,44.91,0,0,0-13-5.49,10.82,10.82,0,0,0-6.23.38c-4,1.36-4.7,4.21-1.74,7.26a17.67,17.67,0,0,0,8.13,4.41,44.37,44.37,0,0,1,9.93,4.27c13.88,7.93,16.48,12.95,13.57,29.51-2.12,12.08-12.28,19.37-25.6,20-13.54.68-24.29-5.32-34-14-2.12-1.89-2.17-4.13-.78-6.41a79.36,79.36,0,0,1,8.81-11.13c1.47-1.65,3-.78,4.45-.19,4.82,2,9.57,4.22,14.38,6.27a9.66,9.66,0,0,0,7.29.56c2.69-1,3-2.7,1-4.74-2.61-2.64-5.94-4-9.33-5.34-5.8-2.24-11.44-4.65-16.46-8.55-12.07-9.4-13.26-25.64-2.23-36.22C532,559.19,539.9,553.91,553.65,555Z" class="cls-1"></path><path transform="translate(-332 -65.89)" d="M564.17,512.69c-.11,7.34,0,12.7-.58,18-.52,4.46-2.45,6.85-6.88,7.59-4.79.8-9.64,1.24-14.47,1.72-2.82.28-4.67-1.32-6.1-3.56-2.45-3.81-3.23-8.1-3.31-12.5-.38-21.56-.84-43.13-.29-64.71.11-4.58,2.17-7.24,6.17-8.73,5.23-2,10.54-3,16.06-1s6.77,3.42,7.08,9.14c.43,8,1,15.95.93,23.92C562.72,493.29,564.73,503.92,564.17,512.69Z" class="cls-1"></path><path transform="translate(-332 -65.89)" d="M633.85,531.24c.82-.86.92-3.24,3-1.44A3.42,3.42,0,0,1,633.85,531.24Z" class="cls-38"></path><path transform="translate(-332 -65.89)" d="M606.62,380.22c-11.58.73-20.17-2.83-27.28-10.44-10.92-11.69-15.36-25.37-13.2-41.19.39-2.83.7-5.22-3-6.32-2.06-.6-3.13-2.83-3.39-5-.29-2.55-.51-5.18,3.11-5.63s6.16,1.21,5.94,4.74c-.17,2.58,1,2.86,3,3.08,7.94.87,15.65-.66,23.39-2,2.57-.45,5.11-1.31,7.75-1,2.15.26,2.11-1.16,2.29-2.54s.73-3.11-1.5-3.52a16.43,16.43,0,0,1-5.72-1.63c-1.71-1-3-2.44-2.49-4.59a3.81,3.81,0,0,1,3.77-3.08,70.54,70.54,0,0,1,19.85,1.9,3.82,3.82,0,0,1,3.28,4c-.12,2.33-1.77,3.52-3.85,4a18.57,18.57,0,0,1-4.09.32c-1.81,0-3.33-.15-3.57,2.51s.66,3.27,3,3.91c6.62,1.77,12.76,4.94,19.37,6.83,3.89,1.12,7.68.17,11.51.35,1.49.07,1.57-1.31,2.1-2.25,1.65-2.94,4.75-3.9,7.22-2.3s2.63,4.21.52,7.17c-.87,1.22-1.77,2.76-3.22,3-3.21.6-3.79,2.64-4.32,5.46-2,10.53-5.8,20.3-12.49,28.88C627.15,374.39,618,380.45,606.62,380.22Z"></path><path transform="translate(-332 -65.89)" d="M497.64,239.6c-1.45-5.62-6.67-8.71-9.13-13.62-.69-1.36-2.36-1.31-2.95-2.61,1.08-1.78.2-3.26-.57-4.88-3.73-7.87-7.78-15.62-9.62-24.25a26.3,26.3,0,0,1-.52-6.32c.14-4.3,1.41-5.66,5.77-5.24a50.44,50.44,0,0,1,15.22,3.57,150.93,150.93,0,0,1,18.53,9.67c3.73,2.27,3.82,3.33,1.16,6.68a90.17,90.17,0,0,0-17.2,35.7A2.93,2.93,0,0,1,497.64,239.6Z" class="cls-39"></path><path transform="translate(-332 -65.89)" d="M745.37,248.67a3.22,3.22,0,0,0-2,.85c-3.77,4-7.65,8-10.71,12.66a3.09,3.09,0,0,1-.91-2.36,86.46,86.46,0,0,0-10.57-38.51c-1.19-2.18-.57-3.64,1.59-4.4,11.64-4.06,23.27-8.26,35.93-7.33,5.39.39,6.79,2.21,5.77,7.47a33.06,33.06,0,0,1-5.69,13.26C754.35,236.46,750.54,243.06,745.37,248.67Z" class="cls-39"></path><path transform="translate(-332 -65.89)" d="M497.64,239.6c.13-1.73-.09-3.57.45-5.16,4-12,9-23.51,17.35-33.2,1.5-1.74,1.93-2.56-.33-3.81-9.9-5.48-19.48-11.66-31-13.28-1-.14-1.95-.42-2.94-.53-4.52-.49-5,.08-5.14,4.59A32.42,32.42,0,0,0,479.1,203c2.72,5.87,4.8,12,8.15,17.6,1.27,2.11.69,3-1.69,2.73-6.06-11.14-12.22-22.25-12.62-35.43-.2-6.45,1.89-8.63,8.38-7.91a63.39,63.39,0,0,1,17.7,4.45,101.87,101.87,0,0,1,18.46,9.78c5.11,3.53,4.89,4.26,1.13,9.1-7,9-11.89,19.27-15.87,29.95-.66,1.75-1.4,3.46-2.13,5.18C500,239.88,499.06,240.39,497.64,239.6Z" class="cls-40"></path><path transform="translate(-332 -65.89)" d="M745.37,248.67a3.24,3.24,0,0,1,.79-2.72c5.07-5.53,8.77-12.07,13.09-18.14,2.9-4.08,3.8-8.87,4.77-13.64.56-2.81-1.66-3.15-3.41-3.35a52.35,52.35,0,0,0-16.71.77,174.16,174.16,0,0,0-20,5.88c-2.36.8-2.9,1.29-1.49,4,6.65,12.71,10.77,26.17,10.32,40.73-2.39,1.26-2.75-.37-3.07-2.13-1.77-9.68-3.46-19.38-7.06-28.62-1.49-3.83-2.81-7.76-5.25-11.12-1.27-1.74-.85-3,.77-4.05a21.51,21.51,0,0,1,4.16-2.47c11.39-4.22,23-7.56,35.33-6.94a25,25,0,0,1,3.34.34c6.32,1.23,7.32,3.49,5.73,9.79-2.93,11.66-10.32,20.59-17.38,29.75C748.38,247.86,747.52,249.76,745.37,248.67Z" class="cls-40"></path><path transform="translate(-332 -65.89)" d="M541.35,257.49c11.78.39,21.38,7.21,29.39,16.84,1.5,1.81,1.67,4-.33,5.67-1.83,1.56-3.78,1.13-5.42-.32-2.13-1.9-4-4.09-6.16-6-8-7-17-10.24-27.57-6.9-2.39.75-4.65.53-5.63-2.08s1-4.1,3.11-5.1C532.32,258,536.16,257.67,541.35,257.49Z" class="cls-41"></path><path transform="translate(-332 -65.89)" d="M679.39,271c6.18.26,12,1.52,17.12,4.95,2,1.35,3.46,3.16,1.93,5.65-1.39,2.28-3.56,2.07-5.61,1-11-5.92-21.19-3.54-31,2.88-1.46,1-2.83,2.05-4.31,3-2.15,1.32-4.37,1.51-6-.74-1.48-2.09-.71-4.14,1.1-5.63C660.44,275.61,669.21,271.48,679.39,271Z" class="cls-41"></path><path transform="translate(-332 -65.89)" d="M578.59,217.13c.13,2.47-2,3.5-4.61,2.16-3.53-1.82-6.9-4-10.83-4.95-8.51-2.14-16.54-1.26-24,3.54-.52.34-1,.68-1.57,1-1.28.76-2.63,1.15-3.69-.2s-.55-2.94.7-4a26.16,26.16,0,0,1,5.51-3.8c12.31-5.48,24.21-4.61,35.56,2.73C577,214.52,578.38,215.47,578.59,217.13Z" class="cls-42"></path><path transform="translate(-332 -65.89)" d="M700.2,232.77A2.6,2.6,0,0,1,699,235c-1.18.79-2.18.2-3-.53-2.48-2.08-4.67-4.5-7.61-6a31.53,31.53,0,0,0-26.06-1.59c-2.14.77-5.25,2.83-6.44-.64s2.47-4.13,4.75-5c12.89-4.89,28.58-1.67,37.12,7.5C698.8,229.87,700,231,700.2,232.77Z" class="cls-42"></path><path transform="translate(-332 -65.89)" d="M514.21,98.72V90h.37v8.79Z" class="cls-43"></path><path transform="translate(-332 -65.89)" d="M715.73,125.52a2.57,2.57,0,0,1-2.67,0C713.83,125,714.59,125.09,715.73,125.52Z" class="cls-44"></path><path transform="translate(-332 -65.89)" d="M375.55,187.52h14.7v.29h-14.7Z" class="cls-45"></path><path transform="translate(-332 -65.89)" d="M845.88,564.05v-8.77h.32V564Z" class="cls-46"></path><path transform="translate(-332 -65.89)" d="M809.94,604.72h8v.37h-8Z" class="cls-47"></path><path transform="translate(-332 -65.89)" d="M772.93,467.52v4.74C771.91,470.45,772.63,469,772.93,467.52Z" class="cls-48"></path><path transform="translate(-332 -65.89)" d="M570.16,711.73c0-7.67,8-11.84,15.08-7.39,5.33,3.35,11.4,5.64,15.68,10.64,1.87,2.18,4,1.34,5.78-.55a27.43,27.43,0,0,1,12.18-7.66c7.88-2.23,14.67,3,14.21,10.87-.17,2.89-2.1,5-3.69,6.7-6.81,7.44-14.23,14.25-23.21,19.14-2.39,1.3-4.19.79-6.56-.34-9-4.32-16.45-10.7-23-18C573.26,721.35,569.65,717.46,570.16,711.73Z" class="cls-10"></path><path transform="translate(-332 -65.89)" d="M574.59,763.41c-.26-.25-.49-.62-.8-.72-1.34-.43-3.5-.13-3.72-1.69a7.06,7.06,0,0,1,2.12-6.12c4-3.87,8.67-2.92,13.34-2,6.69,1.33,10.88,6.3,15.91,10.6-1.76.82-3.11.44-4.43.44a54.3,54.3,0,0,0-11.75,0c-3.59.3-7.09-1.34-10.71-.52Z" class="cls-10"></path><path transform="translate(-332 -65.89)" d="M615.88,761.85c-.92,1.31-2.91,0-3.74,1.54h0l-4.87-.29c4.91-7.36,18.38-12.18,25.52-3.79-4.44,1.63-9,1.65-13.33,2.43-1.11-.61-2.31-.19-3.46-.29-.5-.05.1-.18-.34,0S615.92,761.66,615.88,761.85Z" class="cls-49"></path><path transform="translate(-332 -65.89)" d="M612.92,691.62c-2.89,2-5.16,3.65-7.46,5.21a3.83,3.83,0,0,1-4.22,0c-2.89-1.6-5.75-3.24-9.21-5.2Z" class="cls-50"></path><path transform="translate(-332 -65.89)" d="M585.26,763.93A23.39,23.39,0,0,1,597,764Z" class="cls-51"></path><path transform="translate(-332 -65.89)" d="M615.88,761.85l-1.42-.14c1.69-.45,3.39-1.19,5,0Z" class="cls-52"></path><path transform="translate(-332 -65.89)" d="M776.24,675.62V665.34h.35v10.29Z" class="cls-43"></path><path transform="translate(-332 -65.89)" d="M754.92,603.24V609h-.37v-5.81Z" class="cls-53"></path><path transform="translate(-332 -65.89)" d="M448.73,220.38v2.81h-.36v-2.82Z" class="cls-46"></path><path transform="translate(-332 -65.89)" d="M572.4,334.12c0-9.44,0-9.38,8.69-9.78a52.92,52.92,0,0,0,9.25-1,52.83,52.83,0,0,1,33.54,3.2,65.07,65.07,0,0,0,15,4.31c2.39.41,2.48,1.16,1.81,3.12-1.41,4.11-2.72,8.27-3.86,12.47-.61,2.27-1.6,2.36-3.67,1.76-16.94-4.94-34.11-6.27-51.52-2.77a17.68,17.68,0,0,0-3.84,1.34c-3.91,1.78-3.83,1.8-4.69-2.68A45.45,45.45,0,0,1,572.4,334.12Z" class="cls-9"></path><path transform="translate(-332 -65.89)" d="M600.78,347a109.39,109.39,0,0,1,30.63,3.89c3,.82,3.16,1.88,1.64,4.2-3.19,4.89-6.4,9.63-10.79,13.69-11.54,10.7-30.14,6.28-38.28-2.35a49.89,49.89,0,0,1-7.34-10.77c-1.9-3.52-1.42-4.68,2.4-6.15a45.79,45.79,0,0,1,13.16-2.47C595.05,346.86,597.92,347,600.78,347Z" class="cls-54"></path></svg>